<?xml version="1.0" encoding="utf-8"?>
<!-- Generator: Adobe Illustrator 25.2.3, SVG Export Plug-In . SVG Version: 6.00 Build 0)  -->
<svg version="1.1" id="Слой_1" xmlns="http://www.w3.org/2000/svg" xmlns:xlink="http://www.w3.org/1999/xlink" x="0px" y="0px"
	 viewBox="0 0 3000 867.7" style="enable-background:new 0 0 3000 867.7;" xml:space="preserve">
<style type="text/css">
	.st0{fill:#FBFBFB;}
	.st1{fill:#FCFCFC;}
	.st2{fill:#FAFAFA;}
	.st3{fill:#F9F9F9;}
	.st4{fill:#F8F8F8;}
</style>
<circle cx="1870.5" cy="447.6" r="326.1"/>
<g>
	<path class="st0" d="M1978.6,277.2c2.7,3.5,5.4,6.8,8,10.2c11.4,14.6,22.7,29.2,34.1,43.8c9.4,12.1,18.9,24.1,28.3,36.1
		c12,15.4,23.9,30.8,35.9,46.2c8.2,10.5,16.5,20.9,24.6,31.3c8.9,11.5,17.8,23,26.7,34.5c0.4,0.5,0.8,1.1,1.2,1.6
		c0.8,1,2.5,1.9,2,3.1c-0.4,0.9-2.3,0.3-3.5,0.3c-8.3,0-16.5,0-24.8,0c-1.3,0-2.1-0.3-3-1.4c-14.1-18.1-28.2-36.2-42.3-54.3
		c-10.8-13.8-21.6-27.5-32.3-41.3c-12-15.4-23.9-30.8-35.9-46.3c-9.2-11.9-18.5-23.8-27.8-35.6c-1.3-1.7-1.8-3.1-0.9-5.2
		c3.1-7.3,6-14.6,8.9-22C1978,278.1,1978.3,277.8,1978.6,277.2z"/>
	<path class="st0" d="M1889,303.7c46.9,60,93.5,119.7,140,179.3c-0.2,0.7-0.6,0.6-0.9,0.6c-9.1,0.1-18.2,0.2-27.3,0.3
		c-1.4,0-2.3-0.4-3.2-1.5c-9.5-12.3-19.1-24.6-28.6-36.8c-10.2-13.1-20.5-26.2-30.8-39.3c-10.6-13.6-21.1-27.2-31.7-40.8
		c-8.3-10.6-16.6-21.1-24.9-31.7c-0.8-1.1-1.6-2.2-2.4-3.2c-0.5-0.7-0.7-1.3-0.4-2.1C1882.1,320.3,1885.3,312.1,1889,303.7z"/>
	<path class="st1" d="M1850.8,324.5c-0.5,1.6-0.9,3.1-1.4,4.6c-2.1,6-4.4,12-6.3,18.1c-0.8,2.5-1.8,2.2-3.6,1.4
		c-9.3-4.1-18.9-7.1-28.8-9.2c-17.5-3.8-34.8-2.5-51.8,2.4c-9.7,2.8-19,6.7-27.8,11.7c-11.1,6.3-20.5,14.6-28.8,24.2
		c-0.8,0.9-1.8,1.7-2.3,2.7c-1.8,3.3-4.5,4-8.1,3.9c-8.3-0.2-16.7,0.1-25,0.1c-0.6,0-1.5,0.4-1.9-0.2c-0.5-0.7,0.3-1.3,0.6-1.8
		c7.9-12.5,16.9-24,27.8-34.1c14.4-13.2,30.6-23.2,49.1-29.6c24.7-8.6,50-10.3,75.6-5.8c10.8,1.9,21.4,5,31.3,10.2
		C1850.9,323.9,1850.8,323.9,1850.8,324.5z"/>
	<path class="st0" d="M2090.8,484.6c-9.5,0-19,0-28.5,0c-1.1,0-1.8-0.3-2.6-1.2c-14.5-18.6-28.9-37.1-43.4-55.7
		c-13.2-17-26.5-33.9-39.7-50.9c-8.7-11.1-17.3-22.3-26-33.5c-1-1.3-1.2-2.5-0.5-4.1c3.2-7.7,6.2-15.4,9.6-23.8
		c44.1,56.4,87.8,112.4,131.6,168.4C2091.1,484.2,2090.9,484.4,2090.8,484.6z"/>
	<path class="st0" d="M1650.4,486.6c5.2,0,10.2,0,15.2,0c3.5,0,6.9,0.1,10.4,0c1.7-0.1,2.3,0.6,2.8,2.1c1.3,3.7,2.6,7.3,4.1,10.8
		c6.3,15.2,15.3,28.5,27.5,39.6c6.8,6.2,13.8,12,21.7,16.8c7.1,4.3,14.8,7.2,22.7,9.5c4,1.2,8.1,2.4,12.1,3.4
		c1.4,0.4,1.7,0.9,1.2,2.2c-2.5,7.5-4.9,15-7.3,22.5c-0.5,1.6-1.5,1.2-2.5,1.1c-9.4-1.6-18.1-5.1-26.7-9
		c-12.5-5.5-23.8-12.9-34.1-21.9c-10.5-9.2-19.6-19.6-27.4-31.2c-8.3-12.4-14.1-25.9-18.5-40.1c-0.3-1-0.5-2-0.7-2.9
		C1650.7,488.7,1650.6,487.7,1650.4,486.6z"/>
	<path class="st2" d="M1859.7,298.5c-0.3,1-0.7,2.1-1.1,3.2c-1,2.6-2.1,5.1-3,7.8c-0.6,2-1.6,2.1-3.3,1.4
		c-9.3-3.9-18.8-7.2-28.7-9.4c-24.8-5.4-49.5-4.4-74,1.9c-18.9,4.9-35.9,13.9-51.8,25.4c-12.2,8.8-22.8,19.1-31.8,31
		c-5.5,7.2-10.4,14.9-14.4,23c-0.5,1.1-1,1.7-2.4,1.7c-4.4-0.1-8.8-0.1-13.1,0c-1.4,0-1.8-0.2-1.1-1.7c6.7-14.2,14.2-28,25-39.7
		c16.4-17.9,34.9-33,57-43.4c15-7,30.5-12.3,47-14.5c16.7-2.3,33.3-2.6,50-0.7c15.4,1.8,30,6.4,44.2,12.5
		C1859.7,297.6,1859.6,297.6,1859.7,298.5z"/>
	<path class="st3" d="M1956.9,525.2c0,14.2,0,27.7,0,41.1c0,1.6-0.3,2.2-2,2.1c-3.4-0.1-6.9-0.1-10.4,0c-1.5,0-2.1-0.4-2-2
		c0.1-21.1,0.1-42.1,0-63.2c0-1.5,0.6-1.8,1.9-1.8c5.8,0.1,11.6,0.1,17.4,0c1.9-0.1,2.5,0.6,2.8,2.4c1.1,8.6,2.4,17.1,3.6,25.7
		c0.1,0.4,0.2,0.7,0.8,1.1c0.4-2.8,0.9-5.7,1.2-8.5c0.8-6.2,1.6-12.5,2.3-18.8c0.2-1.3,0.6-1.8,2-1.9c6.1-0.4,12.1-0.1,18.2-0.2
		c1.6,0,1.8,0.9,1.8,2.3c-0.1,21-0.2,41.9-0.3,62.9c0,1.7-0.6,1.9-2.1,1.9c-3.3-0.1-6.6-0.1-9.9,0c-1.9,0.1-2.4-0.5-2.4-2.4
		c0.1-12.9,0-25.8,0-38.7c0-0.7,0-1.5-0.2-2.3c-1.3,3.8-1.3,7.7-1.8,11.6c-1.3,9.9-3,19.8-3.8,29.8c-0.1,1.6-0.9,2.1-2.4,2
		c-2.5-0.1-5.5,0.7-7.4-0.4c-2-1.2-1.2-4.6-1.6-7c-1.6-10.9-3-21.8-4.5-32.7C1958,527.4,1957.9,526.5,1956.9,525.2z"/>
	<path class="st0" d="M1714.9,436.1c0-12.1,0-24.2,0-36.4c0-1.7,0.3-2.3,2.2-2.2c9.3,0.3,18.7-0.5,28,0.7
		c9.6,1.2,14.3,6.1,14.6,15.8c0.5,16,0.7,32-0.2,47.9c-0.5,8.3-3.8,11.7-12,12.5c-10.4,1-20.9,0.3-31.3,0.4c-1.8,0-1.2-1.2-1.2-2.1
		c0-9.5,0-19,0-28.5C1714.9,441.4,1714.9,438.7,1714.9,436.1z M1734.1,436.1c0,7.9,0.1,15.8,0,23.7c0,1.9,0.6,2.4,2.3,2.1
		c0.9-0.2,1.6-0.5,2.3-1c2.5-2,1.9-4.9,2-7.5c0.5-12.5,0.1-24.9,0-37.4c0-0.9-0.1-1.9-0.4-2.7c-0.6-2-2.6-3.1-5.1-2.7
		c-2.2,0.4-1.1,2.1-1.1,3.2C1734.1,421.3,1734.1,428.7,1734.1,436.1z"/>
	<path class="st2" d="M1847.9,431.2c0-10.3,0.1-20.7-0.1-31c0-2.4,0.8-2.9,2.9-2.8c3.7,0.2,7.4,0.1,11.1,0c1.5,0,2.2,0.2,2.2,2
		c-0.1,24.4-0.1,48.8,0,73.3c0,1.8-0.6,2.1-2.2,2c-4.1-0.1-8.3-0.1-12.4,0c-1.9,0.1-2.6-0.6-3.1-2.4c-2.9-10.4-5.9-20.7-8.9-31
		c-0.1-0.3-0.1-0.7-0.8-0.7c0,1.6,0,3.3,0,4.9c0,9,0,18,0,27c0,1.8-0.5,2.3-2.3,2.3c-3.9-0.2-7.7-0.1-11.6-0.1
		c-1.6,0-2.2-0.4-2.2-2.1c0.1-24.4,0-48.8,0-73.3c0-1.5,0.3-2.1,2-2c4,0.1,8.1,0.1,12.1,0c1.5,0,2.1,0.4,2.6,1.9
		c3.3,10.7,6.7,21.3,10.1,31.9C1847.6,431.3,1847.8,431.3,1847.9,431.2z"/>
	<path class="st0" d="M1694.6,434.3c0.5,1,1.3,1,2,1.2c5,1.7,7.7,5,7.8,10.2c0.1,9.1,0.6,18.2,0.1,27.3c-0.1,1.2-0.2,1.8-1.7,1.8
		c-4.8-0.1-9.6-0.1-14.4,0c-1.6,0-1.7-0.7-1.7-2c0-8.1,0-16.2,0-24.3c0-1.9,0-3.9-0.5-5.8c-0.2-0.8-0.5-1.6-1.2-2.1
		c-1.2-0.7-2.6-1.1-3.9-0.7c-1.3,0.4-0.6,1.9-0.6,2.9c-0.1,9.9-0.1,19.7,0,29.6c0,2-0.5,2.4-2.4,2.3c-5-0.2-9.9-0.1-14.9,0
		c-1.4,0-1.9-0.3-1.9-1.8c0-24.5,0-49,0-73.5c0-1-0.2-1.9,1.4-1.9c8.7,0.2,17.3,0,26,0.4c10.2,0.5,14.5,6.3,15.4,14.8
		c0.4,4.4,0.5,8.9-0.2,13.3c-0.8,5.2-2.6,6.9-7.7,8C1695.8,434,1695.3,434.2,1694.6,434.3z M1686.9,419.7c-0.1-2.2-0.1-4.4-0.6-6.5
		c-0.7-2.4-2.7-2.6-4.6-2.5c-2.2,0.1-1,2-1.1,2.9c-0.2,3.8-0.1,7.5,0,11.3c0,1.1-0.7,2.7,0.5,3.2c1.2,0.6,2.6-0.2,3.8-0.8
		c0.9-0.4,1.3-1.3,1.4-2.2C1686.5,423.3,1686.7,421.5,1686.9,419.7z"/>
	<path class="st0" d="M1804.8,474.8c-2.7,0-5.4,0-8.1,0c-1.3,0-1.9-0.3-2-1.8c-0.1-3.4-0.4-6.9-0.6-10.3c-0.1-1.3-0.4-1.9-1.9-1.9
		c-5.5-0.1-5.5-0.2-6,5.3c-0.2,2.3-0.5,4.5-0.6,6.8c0,1.6-0.6,2-2.1,1.9c-5.4-0.1-10.8-0.1-16.2,0c-1.6,0-1.7-0.6-1.5-1.9
		c1.3-10.3,2.6-20.5,4-30.8c1.8-14,3.6-28,5.3-42c0.3-2.1,0.8-2.8,3-2.7c7.8,0.2,15.7,0.1,23.5,0.1c1.3,0,1.8,0.2,2,1.7
		c3.5,24.5,7,48.9,10.6,73.4c0.3,2.1-0.3,2.4-2.1,2.3C1809.7,474.7,1807.2,474.8,1804.8,474.8z M1789.7,417.9
		c-1,8.2-1.9,16.4-2.9,24.6c-0.6,5.2-0.6,5.1,4.6,5.1c1.7,0,2.2-0.4,2-2.2c-0.6-5.7-1-11.4-1.7-17
		C1791.2,424.9,1791.6,421.3,1789.7,417.9z"/>
	<path class="st0" d="M1909.3,474.8c-2.6,0-5.2-0.1-7.8,0c-1.6,0.1-2-0.6-2.1-2c-0.2-3.4-0.5-6.9-0.6-10.3c0-1.5-0.6-1.7-1.9-1.7
		c-5.5,0-5.5-0.1-6,5.5c-0.2,2.2-0.4,4.4-0.5,6.5c-0.1,1.4-0.6,2-2.2,2c-5.3-0.1-10.6-0.1-15.9,0c-1.6,0-1.9-0.5-1.7-2.1
		c2.4-17.9,4.7-35.8,7-53.8c0.8-6.3,1.6-12.7,2.3-19c0.2-1.8,0.7-2.5,2.7-2.5c7.7,0.1,15.3,0.1,23,0c2,0,2.6,0.6,2.9,2.5
		c2,14.2,4.1,28.5,6.1,42.7c1.5,10.1,2.8,20.2,4.4,30.2c0.2,1.5-0.1,2-1.6,1.9C1914.7,474.7,1912,474.8,1909.3,474.8
		C1909.3,474.8,1909.3,474.8,1909.3,474.8z M1894.2,418.7c-1,8.4-2,16.4-2.8,24.5c-0.4,4.5-0.3,4.4,4.3,4.5c2,0.1,2.5-0.6,2.3-2.4
		c-0.9-8.2-1.4-16.4-2.6-24.5C1895.4,419.9,1895.4,419.2,1894.2,418.7z"/>
	<path class="st0" d="M1630.3,397.5c3.9,0,7.7,0,11.6,0c1.4,0,2.2,0.1,2.4,1.9c1.2,9.3,2.5,18.5,3.8,27.7
		c2.1,14.5,4.3,29.1,6.4,43.6c0.6,4,0.6,4-3.4,4c-4.5,0-8.9-0.1-13.4,0c-1.7,0-2.3-0.4-2.4-2.2c-0.1-3.4-0.6-6.9-0.8-10.3
		c-0.1-1.2-0.5-1.5-1.6-1.5c-5.6-0.2-5.6-0.3-6.1,5.3c-0.2,2.3-0.5,4.7-0.6,7c0,1.4-0.7,1.7-1.8,1.7c-5.6,0-11.1,0-16.7,0
		c-1.4,0-1.3-0.8-1.2-1.8c1.9-14.5,3.7-29,5.5-43.5c1.3-10,2.6-20,3.8-30c0.2-1.6,0.7-2.1,2.3-2
		C1622.2,397.6,1626.3,397.5,1630.3,397.5C1630.3,397.5,1630.3,397.5,1630.3,397.5z M1631.1,415.6c-0.1,0-0.3,0-0.4,0
		c-0.2,1-0.3,1.9-0.5,2.9c-1.5,8.1-1.9,16.3-2.9,24.5c-0.6,4.6-0.5,4.4,4.1,4.6c2.3,0.1,2.7-0.7,2.5-2.7c-0.7-6.4-1.2-12.9-1.8-19.3
		C1631.7,422.3,1631.4,419,1631.1,415.6z"/>
	<path class="st0" d="M1722.4,383.6c3.3-3.8,7.2-6.7,11.3-9.3c13.5-8.7,27.8-15.4,43.9-17.4c15.2-1.8,30,0,44.5,4.7
		c4.4,1.4,8.8,2.9,12.9,5.1c1.1,0.6,1.4,1.1,1,2.3c-1.6,4.6-3.2,9.2-4.8,13.8c-0.4,1.2-1.2,1.6-2.4,1.6c-35-0.1-69.9-0.2-104.9-0.3
		C1723.5,384.1,1722.9,384.3,1722.4,383.6z"/>
	<path class="st2" d="M1925.3,533.6c0.1,0.5,0.6,0.5,0.9,0.6c5.3,2.2,7,4.5,7.1,10.3c0.1,7.3,0,14.6,0.1,22c0,1.6-0.5,2-2,2
		c-3.6-0.1-7.2-0.1-10.9,0c-1.9,0.1-2.4-0.4-2.4-2.3c0.1-7.2,0-14.3,0.1-21.5c0-1.4-0.2-2.7-0.5-4c-0.4-1.2-1.1-2-2.4-2.4
		c-1.7-0.5-2.7-0.3-2.6,1.9c0.1,8.6,0,17.2,0.1,25.8c0,1.9-0.4,2.6-2.5,2.5c-4.1-0.2-8.2-0.1-12.4,0c-1.4,0-1.9-0.4-1.8-1.9
		c0-21.2,0-42.4,0-63.6c0-1.2,0.3-1.6,1.5-1.6c8.1,0,16.2,0,24.2,0.8c6.1,0.6,9.6,3.8,10.9,9.8c1,4.6,0.9,9.2,0.4,13.8
		c-0.4,3.8-2.3,6.4-6.3,7.2c-0.5,0.1-1,0.3-1.4,0.5C1925.4,533.3,1925.4,533.5,1925.3,533.6z M1912.7,520.4c0,2,0,4,0,6.1
		c0,0.7-0.1,1.4,0.9,1.4c1.7,0.1,3.4-0.2,4-2c1.1-3.7,1-7.5,0-11.2c-0.2-0.8-0.9-1.6-1.9-1.9c-2.3-0.9-3-0.4-3,2.1
		C1912.7,516.7,1912.7,518.6,1912.7,520.4z"/>
	<path class="st3" d="M1859.7,535c0-10.4,0-20.7,0-31.1c0-1.8,0.3-2.5,2.3-2.4c7.9,0.1,15.8,0.1,23.7,0c1.6,0,2,0.4,2,2
		c-0.1,3.1-0.1,6.2,0,9.3c0,1.3-0.4,1.8-1.7,1.7c-2.6,0-5.2,0.2-7.8,0.2c-1.4,0-1.9,0.3-1.9,1.8c0.1,3.1,0.1,6.2,0,9.3
		c0,1.3,0.4,1.8,1.7,1.7c2.4-0.1,4.9,0,7.3,0c1.2,0,1.6,0.4,1.6,1.6c-0.1,3.1-0.1,6.2,0,9.3c0.1,1.4-0.5,1.7-1.8,1.6
		c-2.4-0.1-4.7,0-7.1,0c-1.2,0-1.8,0.2-1.8,1.6c0.1,4,0.1,7.9,0,11.9c0,1.4,0.6,1.7,1.8,1.6c2.9-0.1,5.9,0,8.8,0
		c1.4,0,1.9,0.4,1.9,1.8c-0.1,3.2-0.1,6.4,0,9.6c0,1.3-0.4,1.8-1.7,1.8c-8.6,0-17.2-0.1-25.8,0c-2,0-1.6-1.2-1.6-2.3
		C1859.7,555.7,1859.7,545.4,1859.7,535C1859.7,535,1859.7,535,1859.7,535z"/>
	<path class="st0" d="M2042.2,568.4c-4.5,0-8.9-0.1-13.4,0c-1.6,0-1.8-0.4-2-1.9c-0.9-7.9,2.2-15,4.3-22.3c2.6-9,5.2-18.1,8-27
		c0.7-2.4,0-2.7-2.1-2.6c-2.4,0.1-4.9,0-7.3,0.1c-1.2,0-1.6-0.3-1.6-1.5c0.1-3.3,0.1-6.6,0-9.8c0-1.4,0.5-1.6,1.8-1.6
		c8.6,0,17.2,0.1,25.8,0c1.7,0,1.9,0.7,2,2.2c1,9.4-2.2,18-5,26.7c-2.4,7.6-4.7,15.2-7.1,22.8c-0.5,1.6,0,2.1,1.6,2
		c2.9-0.1,5.7,0,8.6-0.1c1.4,0,2,0.3,1.9,1.8c-0.1,3.2-0.1,6.4,0,9.6c0,1.5-0.5,1.9-1.9,1.8C2051.3,568.3,2046.7,568.4,2042.2,568.4
		C2042.2,568.4,2042.2,568.4,2042.2,568.4z"/>
	<path class="st2" d="M1706.6,486.8c5.8-1.5,8.5,0.9,10.8,6.5c4,9.7,11.8,16.8,19.5,23.9c11.5,10.6,25.3,16.3,40.6,18.8
		c2.1,0.3,2.4,1,1.7,2.9c-1.3,3.4-2.5,6.9-3.7,10.5c-0.5,1.4-1.1,1.9-2.7,1.7c-9-1-17.2-4.6-25.2-8.5c-13.2-6.3-24-15.7-33.4-26.8
		c-6.6-7.9-11.7-16.8-15.3-26.5c-0.7-1.8-0.5-2.6,1.7-2.4C1702.5,486.9,1704.5,486.8,1706.6,486.8z"/>
	<path class="st0" d="M1826.7,541.7c0-8.3,0-16.7,0-25c0-1.6-0.4-2.3-2.1-2.2c-2.2,0.1-4.4,0-6.6,0.1c-1.1,0-1.5-0.4-1.4-1.5
		c0.1-3.4,0.1-6.7,0-10.1c0-1.1,0.2-1.4,1.4-1.4c11.4,0,22.7,0,34.1,0c0.9,0,1.3,0.2,1.3,1.3c-0.1,3.5-0.1,6.9,0,10.4
		c0,1.2-0.5,1.4-1.5,1.4c-2.2,0-4.4,0.3-6.6,0.2c-1.8-0.1-2.3,0.4-2.2,2.2c0.1,9.7,0,19.4,0,29.1c0,6.7-0.1,13.3,0.1,20
		c0,2.1-0.6,2.5-2.6,2.5c-4-0.1-8.1-0.1-12.1,0c-1.6,0-2-0.5-1.9-2C1826.7,558.2,1826.7,549.9,1826.7,541.7z"/>
	<path class="st0" d="M1796.5,486.7c-2.4,7.1-4.7,14.1-7.1,21.1c-1,2.9-2,5.9-2.9,8.8c-0.4,1.2-1.1,1.6-2.2,1.4
		c-10.1-1.4-19.7-4-28.4-9.7c-7.9-5.2-14.3-11.9-19.5-19.8c-0.4-0.5-0.6-1.1-1-1.9C1755.8,486.7,1776.1,486.7,1796.5,486.7z"/>
	<path class="st2" d="M2020.3,535c0,10.3-0.1,20.5,0.1,30.8c0,2.1-0.6,2.7-2.7,2.6c-3.9-0.2-7.9-0.1-11.9,0c-1.5,0-2.2-0.2-2.2-2
		c0.1-21,0.1-42.1,0-63.1c0-1.5,0.6-1.8,1.9-1.7c4.2,0.1,8.4,0.1,12.6,0c1.8-0.1,2.3,0.4,2.2,2.2
		C2020.3,514.2,2020.3,524.6,2020.3,535C2020.3,535,2020.3,535,2020.3,535z"/>
	<path class="st4" d="M1869.8,348.4c9.4,12.1,18.6,23.8,28.2,36.2c-2.9,0-5.3-0.3-7.6,0.1c-4.8,0.7-7.6-1.3-10.3-5.2
		c-3.8-5.6-8.3-10.8-12.6-16c-1.7-2.1-2.5-3.9-1.1-6.5C1867.6,354.3,1868.5,351.5,1869.8,348.4z"/>
	<path class="st4" d="M1867.9,384.3c-4.7,0-8.8,0-13.1,0c1.2-3.7,2.7-7.2,4.5-10.8C1862.1,377.1,1864.8,380.5,1867.9,384.3z"/>
</g>
</svg>
